<?xml version="1.0" encoding="UTF-8" standalone="no"?>
<svg
   xmlns:dc="http://purl.org/dc/elements/1.1/"
   xmlns:cc="http://creativecommons.org/ns#"
   xmlns:rdf="http://www.w3.org/1999/02/22-rdf-syntax-ns#"
   xmlns:svg="http://www.w3.org/2000/svg"
   xmlns="http://www.w3.org/2000/svg"
   xmlns:sodipodi="http://sodipodi.sourceforge.net/DTD/sodipodi-0.dtd"
   xmlns:inkscape="http://www.inkscape.org/namespaces/inkscape"
   height="8.999999pt"
   viewBox="0 0 9.000001 8.999999"
   width="9.000001pt"
   version="1.1"
   id="svg5741"
   sodipodi:docname="custom_actions.svg"
   inkscape:version="0.92.5 (2060ec1f9f, 2020-04-08)">
  <metadata
     id="metadata5747">
    <rdf:RDF>
      <cc:Work
         rdf:about="">
        <dc:format>image/svg+xml</dc:format>
        <dc:type
           rdf:resource="http://purl.org/dc/dcmitype/StillImage" />
        <dc:title />
      </cc:Work>
    </rdf:RDF>
  </metadata>
  <defs
     id="defs5745" />
  <sodipodi:namedview
     pagecolor="#ffffff"
     bordercolor="#666666"
     borderopacity="1"
     objecttolerance="10"
     gridtolerance="10"
     guidetolerance="10"
     inkscape:pageopacity="0"
     inkscape:pageshadow="2"
     inkscape:window-width="1366"
     inkscape:window-height="739"
     id="namedview5743"
     showgrid="false"
     showborder="true"
     fit-margin-top="0"
     fit-margin-left="0"
     fit-margin-right="0"
     fit-margin-bottom="0"
     inkscape:zoom="8.9398501"
     inkscape:cx="-38.959936"
     inkscape:cy="23.4838"
     inkscape:window-x="0"
     inkscape:window-y="0"
     inkscape:window-maximized="1"
     inkscape:current-layer="svg5741"
     showguides="false" />
  <path
     d="m 7.9266176,3.7550845 h -2.532717 c -0.082276,0 -0.1489831,-0.066711 -0.1489831,-0.1489834 v -2.532719 c 0,-0.41137817 -0.3335393,-0.74491533 -0.7449166,-0.74491533 -0.4113775,0 -0.7449167,0.33353716 -0.7449167,0.74491533 v 2.5327186 c 0,0.082281 -0.066708,0.1489832 -0.1489832,0.1489832 H 1.0733837 c -0.4113775,0 -0.74491684,0.3335371 -0.74491684,0.744915 0,0.4113782 0.33353934,0.7449162 0.74491684,0.7449162 h 2.532717 c 0.082274,0 0.1489833,0.066709 0.1489833,0.1489833 v 2.5327188 c 0,0.4113781 0.3335393,0.7449151 0.7449164,0.7449151 0.4113777,0 0.7449167,-0.333537 0.7449167,-0.7449151 V 5.3938998 c 0,-0.082281 0.066708,-0.1489833 0.1489832,-0.1489833 h 2.532717 c 0.4113771,0 0.7449168,-0.3335383 0.7449168,-0.7449164 0,-0.411378 -0.3335397,-0.744915 -0.7449165,-0.7449156 z m 0,0"
     id="path5739"
     style="fill:#000000;fill-opacity:0;stroke:#91a069;stroke-width:0.65693444;stroke-opacity:1"
     inkscape:connector-curvature="0" />
</svg>
