<svg width="24" height="24">
  <path id="svg_1" fill="none" d="m0,0l24,0l0,24l-24,0l0,-24z"/>
  <path fill="#454545" id="svg_2" d="m11.97545,12.92368c1.07594,0.01184 1.97544,0.84348 1.97544,1.90443c-0.00001,1.06094 -0.80947,1.91626 -1.90177,1.92898c-1.09231,0.01272 -2.07003,-0.70484 -2.14734,-1.87987c-0.07732,-1.17504 0.99773,-1.96538 2.07367,-1.95354zm6.02455,-4.92368l-1,0l0,-2c0,-2.76 -2.24,-5 -5,-5s-5,2.24 -5,5l1.9,0c0,-1.71 1.39,-3.1 3.1,-3.1c1.71,0 3.1,1.39 3.1,3.1l0,2l-9.1,0c-1.1,0 -2,0.9 -2,2l0,10c0,1.1 0.9,2 2,2l12,0c1.1,0 2,-0.9 2,-2l0,-10c0,-1.1 -0.9,-2 -2,-2z"/>
</svg>