<svg xmlns="http://www.w3.org/2000/svg"
	width="24"
	height="24"
	viewBox="0 0 24 24"
	fill="none"
	stroke="currentColor"
	stroke-width="2"
	stroke-linecap="round"
	stroke-linejoin="round">
	<path d="M19.49 11C20.5 11 21 11.67 21 13C21 17.2 21 19.53 21 20C21 21.33 20.5 22 19.49 22C13.13 22 9.6 22 8.89 22C7.88 22 7.38 21.33 7.38 20C7.38 15.8 7.38 13.47 7.38 13C7.38 11.67 7.88 11 8.89 11C15.25 11 18.78 11 19.49 11Z" id="b8c7GchlWh"></path>
	<path d="M10.12 11C10.12 8.6 10.12 7.27 10.12 7C10.13 4.24 8.07 2 5.53 1.99C3.35 1.99 1.46 3.67 1.02 6" id="am8vPlH86"></path>
	<circle cx="14.2" cy="18" r=".5"></circle>
</svg>
